<svg xmlns="http://www.w3.org/2000/svg" viewBox="0 0 448.403 448.403" width="512" height="512"><g fill="#FFF"><path d="M68.512 448.403c-3.32-1.23-6.556-2.838-9.98-3.62-9.137-2.09-13.152-8.86-14.266-16.96-1.8-13.1-2.525-26.356-3.55-39.558-1.115-14.36-2.07-28.73-3.057-43.1-.18-2.585-.21-5.182-.252-7.775-.395-25.098-2.738-49.976-6.333-74.855-3.36-23.267-8.237-46.474-7.155-70.25.174-3.83-.997-7.72-.866-11.558.352-10.35 7.315-14.417 16.612-9.942 4.12 1.983 8.24 3.974 12.308 6.06 3.91 2.006 7.75 4.14 11.13 5.954-2.26-18.77-4.194-37.896-6.938-56.905-4.134-28.645-6.155-57.663-14.748-85.57-1.156-3.755-1.146-8.18-.434-12.065.354-1.934 3.37-4.473 5.453-4.757 3.712-.507 7.642.91 11.458.79 23.357-.74 46.636-1.507 69.74-6.246 18.83-3.862 38.04-6.26 57.2-7.993 29.564-2.675 59.07-6.37 88.886-5.93 8.51.127 17.03-2.797 25.593-3.16C317.393.2 335.508.043 353.61 0c4.737-.01 8.057 2.907 9.86 7.604 5.055 13.184 4.605 27.054 5.608 40.78.966 13.216 2.447 26.396 3.772 39.584 1.25 12.44 2.715 24.86 3.862 37.307 1.77 19.207 3.35 38.432 5.09 58.582 6.337-4.903 11.534-9.236 17.053-13.11 5.59-3.922 9.4-3.32 12.99 2.414 1.968 3.143 3.304 7.023 3.763 10.715 4.935 39.68 5.968 79.53 5.97 119.497.003 21.915 3.343 43.815 3.748 65.748.295 15.957-1.495 31.98-2.856 47.93-.757 8.867-7.506 12.68-15.268 13.34-9.29.793-18.7.132-28.06.135-6.802.003-13.63-.296-20.4.177-11.19.783-22.322 2.604-33.515 3.056-26.963 1.088-53.944 1.836-80.925 2.33-17.91.33-35.843-.436-53.74.1-10.995.327-21.955 2.088-32.91 3.38-11.48 1.352-22.91 3.167-34.41 4.318-13.9 1.39-27.847 2.28-41.77 3.45-1.004.084-1.964.698-2.945 1.066H68.512zM50.676 30.527c.094.967-.045 3.39.608 5.576 2.617 8.764 6.163 17.307 8.083 26.208 2.544 11.798 3.963 23.843 5.727 35.8 1.582 10.726 3.01 21.473 4.446 32.22 1.8 13.482 3.43 26.99 5.356 40.454.904 6.317 3.242 12.567 3.19 18.833-.033 3.978 1.356 5.34 4.03 7.14 9.766 6.582 20.022 12.618 28.974 20.185 19.878 16.804 39.368 34.098 58.47 51.78 17.16 15.884 37.49 27.165 56.42 40.47 3.7 2.603 8.077 4.06 13.262 1.803 30.878-13.435 56.146-34.397 78.88-58.636 16.944-18.07 33.308-36.682 49.868-55.108 1.01-1.125 2.104-2.748 2.082-4.122-.062-3.837-.73-7.66-1.09-11.496-1.853-19.776-3.66-39.555-5.533-59.33-1.146-12.09-2.387-24.174-3.57-36.262-1.397-14.3-2.874-28.593-4.124-42.906-.61-6.975-.495-14.016-1.21-20.976-1.235-12.055-1.765-12.037-14.38-11.107-22.794 1.68-45.61 3.053-68.43 4.36-8.85.51-17.757.166-26.597.79-13.78.974-27.54 2.28-41.275 3.742-17.33 1.846-34.645 3.85-51.934 6.05-14.56 1.853-29.028 5.304-43.62 5.844-19.028.703-38.137-.767-57.634-1.313zM222.563 387.97c2.058 4.09 2.014 4.327-1.248 10.86-4.252 8.514-8.485 17.038-12.928 25.965 4.928.28 8.933.508 11.28.64l16.22-32.832 2.017.833c1.002 11.965-9.438 20.26-11.543 32.208 8.952-.557 17.392-1.244 25.845-1.577 22.168-.874 44.35-1.387 66.508-2.468 10.077-.493 20.09-2.19 30.16-2.972 9.523-.74 19.08-1.29 28.625-1.37 7.744-.063 15.495.994 23.243 1.01 8.07.017 9.575-1.474 10.718-7.207 4.042-20.274.81-40.495-.446-60.703-.97-15.614-3.578-31.16-3.914-46.77-.69-32.158.568-64.368-3.567-96.4-.944-7.323-1.71-14.67-2.607-22.436-5.784 5.275-11.322 9.694-16.115 14.81-15.806 16.878-31.243 34.1-47.01 51.015-17.387 18.65-34.902 37.197-56.733 51.353 3.603 2.103 6.928 3.97 10.182 5.954 12.545 7.646 25.73 14.442 37.45 23.193 20.632 15.403 40.415 31.947 60.423 48.173 3.41 2.764 6.362 6.173 9.124 9.607.96 1.193.706 3.363 1.006 5.087-1.67-.022-3.438.296-4.983-.153-1.91-.557-3.805-1.52-5.418-2.702-17.968-13.173-35.874-26.43-53.806-39.65-11.383-8.393-22.653-16.95-34.215-25.09-8.09-5.694-16.644-10.725-24.868-16.236-2.383-1.597-4.224-2.087-6.93-.525-6.18 3.568-12.42 7.13-18.952 9.97-11.474 4.988-23.2 9.803-34.35-2.446-45.164 36.585-90.61 72.373-140.387 102.266 40.57-39.944 86.05-73.884 132.2-107.558-7.057-4.345-14.466-7.903-20.692-12.927-20.093-16.215-40.435-32.23-59.373-49.74-16.585-15.334-33.27-30.27-52.11-42.816-12.52-8.336-24.332-17.725-36.702-26.295-5.04-3.493-6.29-2.794-5.658 3.267 1.793 17.193 3.898 34.36 6.29 51.482 1.41 10.097 3.6 20.086 5.562 30.804 8.223-9.15 12.138-20.775 21.875-27.833.038 2.066-.566 3.708-1.45 5.182-5.685 9.472-11.478 18.88-17.11 28.383-.878 1.482-1.705 3.404-1.537 5.016.426 4.097 1.43 8.134 2.185 12.105 7.54-9.22 15.06-18.41 22.58-27.604l1.692 1.296c-1.013 1.872-1.884 3.84-3.062 5.6-4.814 7.19-9.195 14.76-14.724 21.365-7.44 8.888-4.76 18.487-3.587 28.15.02.173.493.292.81.467l19.74-31.04 2.206 1.214c-.92 2.487-1.558 5.124-2.806 7.432-4.895 9.058-9.108 18.668-15.233 26.827-6.644 8.85-2.408 17.648-2.367 26.624l21.918-32.818 1.854 1.02c-.72 2.185-1.086 4.577-2.222 6.517-5.5 9.393-10.39 19.307-17.066 27.804-7.165 9.12-2.355 17.823-1.465 26.898 7.463-11.722 14.924-23.444 22.386-35.167l1.788.47c-.38 2.305-.136 4.98-1.246 6.854-6.958 11.733-14.246 23.27-21.345 34.92-1.016 1.667-2.392 3.658-2.257 5.394.97 12.48 2.343 24.926 3.472 37.394.53 5.863 5.138 7.866 9.41 7.863 13.103-.01 26.24-.584 39.3-1.7 12.775-1.092 25.476-3.082 38.2-4.746 10.528-1.377 21.04-2.853 30.977-4.205 4.01-14.054 12.23-24.66 19.808-35.642l2.343 1.2-16.77 33.598h22.13c-.827-6.22 9.52-28.253 17.277-36.46z"/><path d="M332.536 123.44c-3.514.68-7 1.65-10.546 1.993-30.333 2.927-60.615 6.142-91.194 6.012-14.31-.06-28.636 2.426-42.95 3.802-12.67 1.218-25.32 2.66-38.004 3.7-11.767.967-23.563 1.62-35.357 2.195-2.183.107-4.416-.812-6.535-2.44 7.51-1.006 15.01-2.132 22.536-2.994 19.588-2.244 39.153-4.815 58.796-6.426 20.798-1.706 41.692-2.212 62.512-3.69 20.417-1.45 40.787-3.543 61.192-5.18 5.5-.44 11.052-.33 16.578-.28 1.027.01 2.047.933 3.07 1.434-.034.625-.066 1.25-.098 1.875zM329.475 160.682c-4.205 1.28-8.34 3.282-12.628 3.702-11.768 1.152-23.61 1.512-35.406 2.417-21.15 1.624-42.313 3.13-63.42 5.206-29.53 2.903-58.788 8.807-88.64 8.03-6.75-.177-13.48-.972-20.22-1.482-.004-.474-.008-.948-.01-1.422 3.026-.435 6.04-1.093 9.082-1.27 14.945-.86 29.943-1.116 44.836-2.504 14.81-1.38 29.502-3.992 44.277-5.806 12.614-1.548 25.255-2.932 37.916-4.025 18.757-1.62 37.54-2.955 56.315-4.335 7.742-.57 15.495-1 23.25-1.35 1.454-.066 2.938.545 4.41.844l.24 1.996zM100.253 79.328c5.377-.868 10.742-1.814 16.133-2.588 13.26-1.905 26.524-3.804 39.806-5.562 9.3-1.232 18.62-3.002 27.955-3.178 22.405-.422 44.415-3.583 66.405-7.496 9.954-1.77 20.06-3.222 30.144-3.6 15.833-.59 31.705-.167 47.56-.114 1.02.003 2.04.512 3.06.786l.063 1.636c-4.88.406-9.753.925-14.64 1.2-15.637.874-31.373.865-46.896 2.683-18.777 2.2-37.313 6.405-56.073 8.803-12.798 1.636-25.844 1.244-38.7 2.54-10.578 1.066-20.99 3.748-31.565 4.866-13.38 1.414-26.846 2-40.283 2.83-1.044.063-2.144-.77-3.217-1.188l.248-1.618zM325.566 91.274c-6.167 1.064-12.295 2.653-18.506 3.1-23.942 1.716-47.95 2.595-71.857 4.686-24.4 2.134-48.74 5.08-73.047 8.145-14.96 1.887-29.775 4.922-44.73 6.88-4.07.532-8.41-.972-12.627-1.54.045-.64.09-1.28.137-1.918 36.554-5.227 72.98-11.743 109.696-15.32 36.747-3.578 73.78-4.22 110.688-6.147l.246 2.114zM135.997 209.72c28.838-9.345 58.852-9.6 88.598-11.952-28.98 8.1-59.07 7.976-88.598 11.953zM153.168 224.56c15.552-2.925 31.208-4.912 47.058-5.148l.314 2.725-46.936 5.49c-.144-1.022-.29-2.044-.436-3.067zM263.87 388.796c-.208 1.976.087 4.19-.713 5.887-3.418 7.262-7.1 14.403-10.854 21.5-.46.87-1.926 1.21-2.926 1.798-.523-1.082-1.192-2.124-1.508-3.265-.17-.613.12-1.472.45-2.087 4.394-8.146 8.83-16.268 13.258-24.396l2.293.564zM176.89 391.156c-2.13 10.948-7.582 19.027-12.707 28.083-2.08-5.96 5.66-23.09 12.706-28.084zM266.12 409.832c.878-7.33 6.237-12.114 10.214-17.683l1.943 1.05-9.466 18.008c-.895-.46-1.792-.918-2.69-1.376zM295.918 395.715l-7.222 12.017-2.36-1.424c2.49-3.937 4.982-7.874 7.473-11.81l2.108 1.217z"/></g></svg>