<svg xmlns="http://www.w3.org/2000/svg" viewBox="0 0 105.751 105.751" width="512" height="512"><path d="M64.27 61.825c3.232-.092 5.095-1.55 7.692-2.28 2.114-1.3 5.56-1.272 7.69-2.56 2.8-.622 4.5-2.34 6.55-3.702 1.924-1.496 3.74-3.096 5.7-4.558 1.382-2.418 3.18-4.414 3.7-7.695v-7.402c-.484-3.312-1.452-6.144-2.277-9.117-.574-.372-.963-.934-1.14-1.706-.972-.734-1.828-1.59-2.562-2.56-1.3-.51-2.457-1.16-3.137-2.282.644-.21.113-1.6.286-2.277.644-.213.112-1.6.284-2.28.817-.04-.248-1.954.568-1.995-.22-1.176.44-1.463.29-2.564.515-2.568 2.284-6.29.567-8.543-.366-.396-1.238-.283-1.995-.287-.336.137-.645.305-.854.57-1.162.45-1.743 1.483-2.847 1.996-.75.86-2.013 1.213-2.564 2.28-1.954 1.364-3.372 3.27-5.414 4.554-1.308-.072-1.77.697-2.847.853-1.218.015-2.09.382-3.136.573-2.16.303-4.308.627-6.553.852-.978.125-1.593-.113-2.278-.285-.896-.14-.645.873-1.707.572-2.825-.37-6.92.234-10.54 0-1.135-.293-2.433-.418-3.704-.572-1.46-.91-2.765-1.98-3.704-3.422-2.373-.754-4.037-2.22-6.55-2.846-1.456-.44-1.55-2.248-3.702-1.994-2.42.143-2.675 2.45-3.416 4.273.07 4.39-.49 7.835 0 11.966-.103.943-.854 1.232-1.425 1.71-.51.536-.773 1.316-1.425 1.708-.854 1.236-1.44 2.74-2.28 3.986-.145 1.756-.698 3.102-.855 4.84v7.125c.57.965.306 2.11.57 3.133.03.123.513.695.57.857.15.422.187.854.286 1.137.278.836.536 1.375.565 1.996.016.283.254.182.287.285.54 1.58.783 3.195 1.426 4.557.254.543.772 1.12 1.14 1.71.478.77.61.993 1.14 1.42.094.08-.082.474 0 .575.99 1.207 2.43 1.838 3.133 3.13 2.39 1.124 4.456 2.57 7.976 2.565.212.64 1.596.11 2.28.283.413.44 1.456.254 2.276.287 1.398.408 2.99.62 4.846.568-.65.775-1.262 1.586-1.995 2.28-.538.98-1.78 1.257-1.997 2.563-.9.81-.505 2.91-1.424 3.704-3.18.14-5.987-.09-7.975-1.14-2.75-3.038-3.968-7.614-7.69-9.687-2.846-.516-5.75.22-8.83.285-1.203.98-2.784 1.588-3.988 2.562-1.45.736-3.123 1.252-3.137 3.42 2.914 2.176 5.346-1.805 8.55-1.994 1.87-.068 3.104.502 5.126.285 1.204 1.547 2.09 3.414 2.85 5.41.988 1.195 2.034 2.334 2.85 3.705.708-.05.886.44 1.137.855 2.018 1.018 4.276 1.797 7.12 1.994h4.274c1.477 1.628 1.758 4.046 1.423 6.548-.058.44-.413.936-.567 1.428-.287.877-.408 1.623-.572 2.275-.253 1.013-1.193 1.884-1.14 2.85-1.83 1.396-3.32 3.132-6.553 3.136-1.956-.037-1.926-2.06-4.27-1.713-.253-1.072-.395-2.258-1.992-1.992-1.222.5-1.366 2.915-.857 4.278.47 1.43 1.166 2.63 1.71 3.982 2.193 1.795 6.56 1.42 10.54 1.426.6-.543 1.357-.918 2.28-1.14 2.018-2.446 3.776-5.147 5.696-7.692.202-1.316.94-2.1 1.138-3.416.332-.926 1.47-2.162 2.28-1.707.556 4.192.173 9.317.284 13.956-.63.984-.88 2.352-1.424 3.418-1.592-.076-2.637.404-3.42 1.143.28 1.62 1.217 2.582 2.28 3.414 2.972.317 4.618-.698 6.267-1.706.79-1.777 1.534-3.596 1.995-5.695.108-3.61-.06-7.913 0-12.25.38-1.618.854-3.138.855-5.13.604-1.39.038-3.947.855-5.125.063 1.832.455 3.34.287 5.41.99 6.51 4.52 10.482 6.547 15.953 2.01 1.885 3.97 3.818 7.69 3.986.244-.424.92-.414 1.425-.568.67-.945 1.378-1.852 1.14-3.7-.223-.065-.33-.24-.283-.575-.784-1.68-3.238-1.696-4.56-2.845-.786-2.535-2.345-4.3-3.417-6.555-.694-2.152-1.25-4.445-2.283-6.264.084-1.506-.734-2.113-.566-3.7-.59-.075-.076-1.253-.57-1.427-.213-.976 1.158-.364.857-1.425 1.192 1.176 1.647 3.096 2.278 4.838 1.855 2.803 3.563 5.744 6.265 7.693 2.24 2.514 5.177 4.322 9.118 5.13h3.7c.047-.526.968-.177 1.14-.57.19-.384.613-.532 1.14-.57 1.034-1.054 1.724-2.454 2.563-3.706.578-1.322 1.092-4.285-.283-5.125-3.572-.06-3.897 3.13-6.838 3.703-5.34-1.23-8.855-5.508-11.105-9.4-.17-.283-.11-.53-.288-.854-1.57-2.883-3.458-5.752-4.56-8.832-.84-.678-1.352-1.684-1.99-2.56-.502-.258-.886-.64-1.14-1.14-.552.133-1.453-.767-.853-.857zm16.81-43.01c.01.017.258-.537.283-.572.016-.02-.023-.283 0-.283 1.014-.178.027 1.265-.284.855zm-1.713 7.12c-.582-.085-.56-.772-1.14-.854.4-1.5 1.284-2.515 1.71-3.985.512-.04.6.344 1.142.285.467 2.556-1.305 2.87-1.713 4.556zm1.996 2.85c-.015-1.247.71-1.76 1.14-2.566.5.26.52.995.853 1.423.072 1.02-.855 1.045-.854 1.998-.58-.083-.56-.774-1.14-.856zm8.543 11.108c.606.09-.04 1.242-.28 1.424.134.898-.41 1.113-.572 1.71-.846.673-.8 2.24-2.28 2.278-1.328-.02.336-.652.285-1.14.26-.505.688-.833.856-1.423.887-.728 1.39-1.833 1.99-2.85zm-2.28-2.566c-.01-.867.606-1.106.858-1.705 1.38.363-.206 2.51-.857 1.705zm.29-11.39c.716 1.036 2.074 3.335.852 4.554-1.14-.286-1.14-1.706-1.993-2.276.132-1.008.72-1.56 1.14-2.278zm-.858 13.386c-.995.996-1.84 2.145-2.562 3.42-.92-.756.24-1.83.57-2.28.58-.556.933-1.345 1.422-1.995.35.124.588.366.57.855zm-.854-15.383c-.005.568-.776.363-.57 1.14-1.078-.153-1.255-1.212-1.425-2.278 1.167-.122 1.49.6 1.994 1.138zm-1.138 6.84c.947.695 1.962 2.256.855 3.416-.9-.242-.81-1.47-1.712-1.71.273-.58.585-1.132.858-1.706zm-1.71 6.547c-1.046-.584-.017-1.484-.288-2.844.633.223.715.992 1.14 1.422.14.894-.763.75-.853 1.422zm.57-31.047c.824.936-.55 2.098-.284 3.42-1.217.076-1.24-1.04-1.995-1.428.637-.785 1.788-1.057 2.28-1.992zm-4.274 3.133h.855c.014 1.945 2.867 2.043 1.994 3.99-1.47-.525-2.122-1.867-3.134-2.85-.118-.597.196-.754.286-1.14zm-1.71 3.707c.462-.084.492.266.856.283.093 1.326 1.616 1.23 1.71 2.56-.386.282-.57.763-.856 1.142-1.444-.168-1.45-1.773-2.564-2.277.113-.742.85-.863.855-1.708zm0 15.093c-.985.2-1.02-.998-.567-1.426.576.208 1.16.86.568 1.426zm-2.56-15.668c.15-.44.294-.018.284.285-.51.083-.585-.27-.283-.285zm.284 4.842c.46-.078.488.27.854.285.005 1.23 1.42 1.05 1.424 2.28-.89 1.198-1.438 2.74-2.277 3.987-1.278-.146-1.96-.888-2.85-1.423 1.005-1.655 1.84-3.474 2.85-5.13zm-1.426 9.686h-3.704c.008-.852.743-.97.857-1.71.73.034.998.526 1.423.856.727.034 1.463.054 1.424.853zm-2.277-12.246c-.08-.463.27-.49.283-.858 1.105-.247 1.015.696 1.71.857-.413 1.2-1.48 1.748-1.71 3.133-1.096.518-.854 2.373-2.278 2.564-1.12-.84-.127-2.2.568-2.85.317-1.11.79-2.06 1.427-2.847zm-2.28-.573c-.81 1.186-1.58 2.408-2.278 3.705-2.19-.9-.772-4.645 2.278-3.706zm-1.994 8.264c.563 0 .362.773 1.138.566-.105 1.695-1.21 2.4-.85 4.56-.255-.222-.646-.308-1.144-.284.61-1.066-.032-1.62-.57-2.28.296-1.033.946-1.716 1.425-2.562zm-1.997-1.994c-.313 1.486-1.463 2.137-1.71 3.7-.577-.27-1.127-.58-1.708-.855.523-1.472 1.608-2.382 1.994-3.987.835.018 1.056.65 1.423 1.14zm-1.136-5.983c.146.146-.207.362-.287.286-.147-.15.208-.363.287-.285zM59.714 19.1c.61-.527.753-1.53 1.423-1.994-.082-.46.27-.488.29-.857.58.086.554.773 1.134.857-.19 1.04-1.077 1.39-1.423 2.28-.638.595-.694 1.772-1.71 1.995-.94-.7-.064-1.387.287-2.282zm2.277 7.69c-.123.64-1.402.115-1.994.285.104-.373.503-.447.57-.854.88-.216.547.782 1.425.568zM51.738 14.54h7.69c-.36 1.917-1.985 2.573-2.562 4.275-.85-.004-.967-.742-1.71-.856.215-1.214 1.33-1.52 1.14-3.134-1.443-.117-1.668.994-2.564 1.42-.712.053-.89-.436-1.136-.854-.268-.302-1.05-.087-.857-.85zm6.267 12.533c-.49.654-2.174.103-3.137.287.69-1.217 1.54-2.262 1.998-3.703.422.145.72.422 1.14.568-.624.682-.784 2.195 0 2.848zm-4.56-2.848c-.833-.02-1.054-.652-1.423-1.14.215-1.118 1.114-1.546 1.425-2.562.662.19.762.943 1.422 1.137-.443.885-.843 1.815-1.422 2.565zm-1.423 3.135c-.77.174-2.26-.36-2.56.283-.852-.592.713-1.158.566-1.994.718.516 1.952.515 1.995 1.71zm-2.56-10.256c.912.225 1.242 1.03 1.99 1.424-.235 1.28-1.468 1.566-1.708 2.852-.934-.113-1.254-.836-1.993-1.14.144-1.472 1.494-1.736 1.71-3.136zm-6.84-2.563v.286c2.343-.68 3.19 1.133 5.416.28.05 1-.964.942-1.144 1.714-.75.197-.602 1.293-1.422 1.422-1.37-.432-2.178-1.428-3.135-2.28-.064-.536.324-.624.285-1.136-.686-.117-.62.52-1.425.28-.29-.955.888-.44 1.426-.565zm4.846 9.117c-.4 1.873-2.176 2.383-2.28 4.557-.826-.22-1.64-.45-1.996-1.14.44-1.745 1.738-2.632 2.28-4.272 1.104-.155 1.174.726 1.996.855zm-6.838-5.13c.15.15-.208.368-.288.288-.143-.15.208-.365.288-.287zm.568.57c.624.612 1.585.886 1.993 1.71-.79 1.775-2.202 2.924-2.85 4.842-1.164-.446-2.142-1.087-3.134-1.71.693-2.252 3.133-2.758 3.99-4.842zM38.348 30.78c-.95.186-1.393.885-2.274 1.14-1.122-.214-1.55-1.112-2.567-1.43.363-1.63 1.43-2.556 1.996-3.985 1.66.045 2.117 1.3 3.416 1.71-.307.737-.694 1.397-.572 2.565zm-6.266-3.992c-.527.5-.86 2.13-1.71 1.426.47-1.717 1.483-2.883 2.28-4.273.377.102.45.503.854.57-.196 1.04-1.078 1.39-1.424 2.278zm2.28-5.127c.147.15-.206.362-.286.286-.148-.145.21-.364.286-.285zm5.698-8.257c-.77.838-1.58-.69-2.28-.857.673-.747 1.482.78 2.28.857zm-2.28 2.56c-.844 1.725-2.404 2.727-3.137 4.56-.58-.085-.556-.772-1.138-.856.623-2.033 1.84-3.478 2.85-5.125.75.195.602 1.294 1.424 1.42zm-6.27-2.843V8.842c1.352.74 2.957 1.223 4.275 1.998-.584.266-.79.916-1.142 1.422.156 1.006-1.01.7-.853 1.707-.926.78-1.48 1.94-1.992 3.134-.66-.768-.1-2.748-.287-3.984zm-.85 6.546c.148-.44.295-.02.283.287-.51.08-.583-.27-.284-.287zm-.572 1.995c1.312.515-.67 1.247-.566 2.28-.83.406-.648 1.826-1.713 1.996.195-1.99 1.5-2.87 2.278-4.275zm-3.416 14.813c.723-2.024 1.503-4 2.275-5.983h.857c-.547 1.666-1.682 3.846-.857 5.983-.707.72-1.473 1.375-1.707 2.566-.732-.317-.562-1.532-.568-2.567zm6.263-2.277c-.787.068-.648 1.06-1.137 1.426-.117.686.517.617.283 1.422-2.442 2.654-3.17 9.92-1.138 13.674.344-.03.175.414 0 0-1.695-1.438-2.41-3.855-3.135-6.268.422-2.713 1.75-4.518 2.28-7.123.66-.19.763-.943 1.422-1.14-.2-1.056.486-1.222.287-2.278.332-.173.414-2.007 1.137-.856 1.256-.04.08.808 0 1.142zm14.53 21.65c-2.873-.36-5.728-.73-8.547-1.14-1.062-.933-2.092-1.897-2.845-3.138-.444-.602-.82-1.268-1.143-1.988-.503-.45-.375-1.53-.854-1.998-.024-2.777.257-5.248.567-7.69.413-1.675 1.786-2.392 2.563-3.706 1.21-.88 2.054-2.125 3.42-2.844.652-.207 1.456-.256 1.994-.572.51-.346 1.66-.05 1.994-.566 6.94.385 11.86-1.242 18.8-.855 1.464.227 1.87-.605 3.134-.57h6.267c.458.077.494-.272.854-.288.87-.207.84.492 1.713.29.72.032 1.104.41 1.137 1.138.375.29 1.047.277 1.424.566.852 2.57 1.904 4.936 2.564 7.695v4.556c-.902 3.084-2.186 5.79-3.7 8.262-1.013.795-2.643.965-3.704 1.71-.636.224-1.11.6-1.997.567-.1.756-1.45.26-1.708.855-7.673.646-14.308-.196-21.934-.284zm23.36-8.832c2.286.195 2.595-1.582 3.415-2.85-.043-3.562.578-7.795-2.848-7.98h-.568c-1.2 1.175-2.537 2.224-3.135 3.995-.044 1.56-.03 3.067.286 4.268 1.072.734 1.075 2.535 2.848 2.566zm-29.06.852c1.245.82 2.856.992 4.277.287 2.066-2.088 1.11-7.662-.29-9.686-4.764-1.427-5.787 5.916-3.987 9.4zm16.24.287c.047-.33.448-.307.854-.287.57-.67.75-1.908.286-2.844-1.072-1.024-3.078-.453-3.14 1.14.17 1.163.836 1.82 1.998 1.99zm1.14 3.135c-.94.01-1.42.48-2.565.28-1.864-.126-1.97-2.015-3.986-1.987-.16.407-.445.694-.857.85.45 2.972 3.085 3.75 6.267 3.993.666-.092 1.067-.45 1.992-.29 1.387-.92 4.637-2.284 2.85-4.552-1.977-.18-2.43 1.172-3.7 1.708z" fill="#FFF" fill-rule="evenodd" clip-rule="evenodd"/></svg>