<svg xmlns="http://www.w3.org/2000/svg" viewBox="0 0 68.127 68.127" width="512" height="512"><g fill="#FFF"><path d="M57.7 20.324c-.93-10.302-8.865-18.3-18.95-19.978-9.878-1.643-20.625 2.62-25.785 11.41-2.505 4.266-3.11 9.05-2.217 13.883.71 3.83 1.675 9.988 5.782 11.638.35.14.624-.118.704-.425.16.26.597.35.846.024 2.418-3.16 4.773-6.392 6.94-9.73.163-.252.162-.49.077-.692.018-.06.032-.124.028-.198-.196-3.82 1.073-7.556 4.713-9.358 3.57-1.768 8.37-.404 10.47 3.006 2.01 3.266 1.43 7.9-1.262 10.603-2.953 2.964-6.388 2.628-10.155 2.538-.736-.018-1.057 1-.482 1.416.218 5.83.176 12.23 1.22 17.94.046.252.227.41.442.475.016.35.246.675.715.652 3.063-.148 6.15-.244 9.19-.674.007 0 .01-.004.016-.005.01.024.014.05.022.073.368 1.108 1.87.636 1.71-.47-.445-3.04-.647-5.85-.305-8.886 9.587-2.716 17.17-13.385 16.282-23.246zM40.024 41.977c-.32.085-.514.277-.607.505-1.954-.018-3.954.202-5.888.34-.185.012-.19.293 0 .29 1.916-.037 3.902-.003 5.827-.186.025.238.13.473.303.645-.083.406-.15.818-.21 1.232-1.396-.346-3.158-.01-4.47.488-.13.05-.08.24.06.212.787-.162 1.566-.316 2.37-.363.667-.04 1.334.033 1.996 0-.097.76-.14 1.533-.15 2.305-2.142-.29-4.323-.308-6.474-.136-.216.016-.223.348 0 .34 2.177-.066 4.307.077 6.466.308.005.5.037.996.08 1.49-.02-.005-.03-.02-.054-.02-1.91.047-3.892.365-5.78.654-.166.025-.127.298.038.29 1.91-.095 3.916-.186 5.8-.522.015-.003.02-.017.032-.022.057.52.13 1.035.238 1.542-2.848.025-5.697.348-8.53.627.985-5.37-.033-11.85-1.678-17.08 3.977 1.433 9.11-.624 11.625-3.81 2.884-3.656 3.115-9.282.198-12.99-6.173-7.848-19.806-1.918-17.368 7.937-.097.06-.187.142-.264.253-2.258 3.26-4.347 6.654-6.345 10.078-.015.027-.016.052-.027.078-.043-.106-.11-.202-.23-.266-3.683-1.978-4.816-10.69-4.88-14.377-.082-4.616 1.69-8.905 4.734-12.334C22.647 2.943 32.015.394 40.42 2.56c2.105.544 4.072 1.4 5.853 2.505-5.46-.345-10.96-.47-16.427-.352-.92.02-3.177-.307-2.617 1.23.015.044.074.027.067-.018-.126-.756 18.325-.22 19.98-.184 1.227.866 2.35 1.858 3.353 2.957-9.413-.59-18.934-.648-28.343.003-.217.015-.222.347 0 .342 9.604-.205 19.142-.22 28.743.134.004 0 .005-.003.01-.003.53.62 1.01 1.278 1.464 1.957-7.622-.96-15.592-.73-23.214.077-.153.016-.16.25 0 .244 7.85-.373 15.575-.162 23.42-.015.47.73.89 1.495 1.263 2.285-5.295-.19-10.652-.103-15.943.085-.202.007-.202.307 0 .314 5.36.19 10.79.278 16.155.078.35.795.636 1.623.884 2.467-3.854.46-7.665.624-11.55.51-.23-.008-.222.33 0 .35 3.9.358 7.834.235 11.71-.308.148.56.268 1.133.368 1.712-2.355.05-4.716.235-7.073.283-.21.004-.207.31 0 .323 2.34.146 4.8.19 7.147-.1.076.52.146 1.044.18 1.58.023.395.013.79.007 1.187-3.852-.16-7.857.428-11.623 1.118-.203.038-.16.392.05.365 3.856-.506 7.716-.627 11.576-.982-.034.78-.14 1.555-.28 2.326-3.136-.31-6.554.147-9.606.7-.17.03-.133.32.04.304 3.144-.275 6.338-.238 9.473-.517-.29 1.385-.747 2.746-1.338 4.06-3.696-.252-7.426-.203-11.122.015-.188.01-.192.296 0 .295 3.627-.012 7.238.11 10.86.232-.49 1.01-1.063 1.988-1.704 2.923-.036-.038-.087-.065-.157-.066-2.925-.052-5.825-.023-8.75-.195-.217-.013-.206.308 0 .333 2.83.342 5.784.537 8.63.317-1.604 2.243-3.622 4.202-5.875 5.734-.004 0-.005-.004-.01-.004-3.5.22-6.993.288-10.498.313-.167 0-.165.25 0 .258 3.25.156 6.506.103 9.755-.066-1.657 1.027-3.426 1.825-5.257 2.31zM41.785 57.552c-.093-.224-.26-.364-.443-.438.038-.244-.05-.508-.29-.638-2.803-1.52-7.15-.744-10.222-.14-.294-.283-.875-.16-.915.372-.273 3.626.026 7.235.982 10.747.155.57.664.737 1.104.623.087.027.177.05.286.05 3.253-.057 7.028.064 10.182-.772.118-.03.21-.082.285-.142.205-.055.375-.212.353-.47-.24-2.848-.22-6.542-1.32-9.192zm-9.217 8.897c-.69-2.87-1.197-5.743-1.468-8.677 1.67-.148 3.353-.234 5.03-.192 1.408.036 2.86.327 4.253.135 0 .01-.006.018-.007.03-.042.643-.016 1.313.058 1.995-2.178-.195-4.515.064-6.652.322-.222.027-.233.372 0 .356 2.223-.15 4.492-.08 6.71-.262.072.534.173 1.074.287 1.615-1.842.108-3.636.232-5.508.09-.174-.013-.218.282-.042.31 1.814.27 3.81.394 5.662.093.097.423.207.84.314 1.26-2.39.19-4.802.55-7.176.785-.223.022-.234.36 0 .356 2.37-.024 4.934-.135 7.32-.563.164.617.33 1.222.49 1.808-2.973-.3-6.31.203-9.272.54z"/><path d="M49.03 35.802c-4.12-.18-8.385.242-12.5.507-.195.012-.2.306 0 .304 4.122-.05 8.406.043 12.5-.45.226-.028.238-.35 0-.362z"/></g></svg>