<svg xmlns="http://www.w3.org/2000/svg" width="512" height="512" viewBox="0 0 456.935 456.935"><g fill="#FFF"><path d="M121.806 192.07c-.635-5.33-4.504-10.232-11.7-10.232-23.363 0-46.722-.043-70.073-.787-8.102-.253-11.997 5.826-11.773 11.874-1.356 1.777-2.163 4.098-2.08 6.957 1.966 70.984 11.035 141.583 12.226 212.603.1 5.743 3.666 9.303 8.043 10.694 1.622.985 3.53 1.68 5.813 1.858 19.827 1.533 39.654 3.113 59.48 4.707 2.563.21 4.66-.3 6.386-1.208 6.243.173 12.534-3.585 12.354-11.345-1.717-74.037-5.632-148.003-8.148-222.015-.042-1.13-.25-2.143-.53-3.105zM62.55 402.31c-1.776-65.947-9.616-131.574-11.733-197.515 15.818.363 31.63.513 47.45.538 2.375 66.804 5.684 133.574 7.43 200.395-14.384-1.147-28.762-2.295-43.148-3.417zM66.728 27.292c-.835.09-1.607.27-2.354.477C28.026 29.42 1.824 58.526.067 95.06c-1.752 36.438 31.125 65.76 67.48 65.656 34.324-.1 64.175-26.827 68.913-58.89 6.14-41.53-25.414-79.262-69.732-74.534zm9.07 108.78C16.252 151.737 8.37 52.493 63.17 50.687c1.088.188 2.248.282 3.563.14.4-.04.765-.04 1.16-.07 1.49.095 2.987.2 4.556.436 2.12.314 4.06.13 5.813-.386 45.857 4.887 43.896 73.067-2.466 85.267zM429.917 204.415c-40.248-60.626-106.73-79.247-176.14-65.227-.676-8.56-1.874-17.083-3.133-25.588-.787-5.327-6.72-8.523-12.035-8.54-.936-.133-1.93-.187-3.012-.098-18.715 1.508-37.45 2.293-56.22 2.356-7.32.025-11.195 5.116-11.72 10.55-.255.868-.438 1.79-.506 2.782-6.375 95.86-8.023 191.887-5.708 287.91.22 8.837 8.6 12.493 15.496 11.025 24.72 1.457 49.4 2.147 74.14.74 4.165-.232 7.19-2.09 9.15-4.65 2.25-1.858 3.59-4.733 3.068-8.684-6.038-46.082-42.4-188.377 38.557-186.927.93.167 1.92.262 3 .213 100.073-4.1 52.188 129.8 56.412 193.28.58 8.658 8.887 12.345 15.67 11.06.956.33 1.96.59 3.073.706 21.13 2.29 42.31 3.86 63.562 4.708 8.09.325 11.983-5.708 11.766-11.745.34-1.188.543-2.474.457-3.94-4.58-73.437 16.05-146.773-25.878-209.93zm.864 201.465c-15.253-.817-30.472-2.05-45.68-3.61-3.702-79.476 36.51-197.855-77.87-205.53-104.364-.99-79.56 133.682-69.742 200.548-17.285.478-34.553.07-51.828-.787-1.836-88.65-.25-177.294 5.324-265.803 12.454-.24 24.887-.858 37.315-1.732.88 7.132 1.52 14.287 1.59 21.49.03 3.255 1.225 5.767 3.013 7.622 2.087 4.95 7.164 8.663 14.09 6.86 71.6-18.636 132.338 1.392 169.748 63.95 32.347 54.07 9.75 115.307 14.04 176.993z"/></g></svg>